<?xml version="1.0" encoding="utf-8"?>
<!-- Generator: Adobe Illustrator 26.0.1, SVG Export Plug-In . SVG Version: 6.00 Build 0)  -->
<svg version="1.1" id="Camada_1" xmlns="http://www.w3.org/2000/svg" xmlns:xlink="http://www.w3.org/1999/xlink" x="0px" y="0px"
	 viewBox="0 0 1080 1080" style="enable-background:new 0 0 1080 1080;" xml:space="preserve">
<style type="text/css">
	.st0{fill:#160100;}
	.st1{fill:#4C0000;}
	.st2{fill:#860B0D;}
</style>
<path class="st0" d="M694.3,311.5l-63-73.7c-1.9-2.3-4.8-3.5-7.8-3.5l-154.2,3.9c-9.3,0-10.8,0.7-15.9,7.2L377.7,364
	c-5.6,8.9-6.2,20-1.4,29.4L429,496.3c2.1,4.1-0.8,9-5.4,9.2l-144.5,5c-9.3,0.3-17.8,5.1-22.9,12.9l-73.4,112.5
	c-4.4,6.7-4.5,15.3-0.3,22.2L252,771.6l69.5,76.4l10-200l276.2-67.5l91.8-171.8L694.3,311.5z"/>
<path class="st1" d="M685.9,322.7c0,0,1.9-7.4,4.1-16.1l-58.8-68.7c-1.9-2.3-4.8-3.5-7.8-3.5l-154.2,3.9c-3.7,0-6.2,0.1-8.1,0.6
	l61.8,83.7H685.9z"/>
<path class="st1" d="M504.9,591.5l-9.4-11l-71.9-72.9c-0.6-0.6-0.4-1.6,0.3-2l0.5-0.2c-0.3,0.1-0.7,0.1-1,0.1l-144.5,5
	c-5.2,0.2-10.2,1.8-14.4,4.5l68.6,86L504.9,591.5z"/>
<path class="st0" d="M566.4,727.4l12.7,27.5c0.8,1.7,1.8,3.2,3,4.6l64.8,73.5L592,695l-30.3,25.2L566.4,727.4z"/>
<path class="st2" d="M533.5,316.4l156.5-6.3c2.4-0.1,4.7,1.2,5.8,3.3L898,690c4,7.4,3.3,16.4-1.6,23.1l-79.6,108.2
	c-4.2,5.6-10.6,9.1-17.6,9.4l-140.4,6.5c-6.5,0.3-12.5-3.2-15.5-9L587.6,719c-2.3-4.6-8.7-4.9-11.5-0.6l-74.6,115.4
	c-4.4,6.7-11.7,10.9-19.8,11.3l-151.4,5.8c-5,0.2-9.6-2.4-12-6.7l-63-112.6c-4.6-8.3-4.2-18.5,1-26.4
	c20.2-30.4,69.4-104.4,70.4-105.8c2.9-4,9.9-9.5,21.4-9.9c39.9-1.1,112.1-3,140.1-3.6c4.9-0.1,8.1-5.2,6.1-9.7l-50.1-110.5
	c-3.5-7.7-2.9-16.7,1.7-23.9l74.8-117.9C523.5,319.4,528.3,316.6,533.5,316.4z"/>
<image style="overflow:visible;" width="5400" height="3800" xlink:href="94CD73A.jpg"  transform="matrix(0.1836 0 0 0.1836 -1028.2521 278.5035)">
</image>
</svg>
