<?xml version="1.0" encoding="utf-8"?>
<!-- Generator: Adobe Illustrator 26.0.1, SVG Export Plug-In . SVG Version: 6.00 Build 0)  -->
<svg version="1.1" id="Camada_1" xmlns="http://www.w3.org/2000/svg" xmlns:xlink="http://www.w3.org/1999/xlink" x="0px" y="0px"
	 viewBox="0 0 2205.7 699.7" style="enable-background:new 0 0 2205.7 699.7;" xml:space="preserve">
<style type="text/css">
	.st0{fill:#B7B7B7;}
	.st1{fill:#160000;}
	.st2{fill:#4C0000;}
	.st3{fill:#850C0C;}
</style>
<g id="sub-title">
	<g>
		<polygon class="st0" points="912,486.9 912,514.9 918.3,514.9 918.3,503.8 921.6,512.2 925.8,512.2 929.1,503.6 929.1,514.9 
			935.4,514.9 935.4,486.9 929.2,486.9 923.7,501.7 917.8,486.9 		"/>
		<path class="st0" d="M995.8,487.8l4.2-8.1h-7l-3.7,9h0.6l-8.7,26.3h6.7l1.9-6.9h6.3l2.3,6.9h6.6L995.8,487.8z M991.6,502.3
			l1.4-4.2l1.5,4.2H991.6z"/>
		<path class="st0" d="M1069.1,511.3l1.4-1.5V492l-4.9-5h-10.9l-5,5.1v17.8l4.6,5.1h9.7l3.8,4.3l4.1-4.3L1069.1,511.3z
			 M1064.4,506.7c0,1-0.8,1.8-1.8,1.8h-4.8c-1,0-1.8-0.8-1.8-1.8v-12c0-1,0.8-1.8,1.8-1.8h4.8c1,0,1.8,0.8,1.8,1.8V506.7z"/>
		<path class="st0" d="M1118.7,486.9h6v20.3c0,0.7,0.5,1.2,1.2,1.2h5.5c0.7,0,1.2-0.5,1.2-1.2v-20.3h6.1v22.9l-4.6,5.1h-10.8
			l-4.6-4.9V486.9z"/>
		<rect x="1187.4" y="486.9" class="st0" width="6.5" height="28"/>
		<rect x="1884.9" y="486.9" class="st0" width="6.5" height="28"/>
		<polygon class="st0" points="1242.2,486.9 1242.2,514.9 1248.3,514.9 1248.3,500.9 1257.1,514.9 1262.2,514.9 1262.2,486.9 
			1255.9,486.9 1255.9,500.9 1247.1,486.9 		"/>
		<path class="st0" d="M1322.5,486.9h-5.5l-9.7,28h7.3l2-6.9h6.1l2.1,6.9h6.8L1322.5,486.9z M1318.2,502.1l1.5-3.9l1.5,3.9H1318.2z"
			/>
		<polygon class="st0" points="1395,496.3 1389.2,496.3 1389.2,493.1 1382.6,493.1 1382.6,497.5 1391.5,497.5 1395,501.4 
			1395,510.4 1391.3,514.9 1380.1,514.9 1376.2,510.6 1376.2,505.6 1382.7,505.6 1382.7,508.3 1389.2,508.3 1389.2,503.5 
			1380.2,503.5 1376.2,499.2 1376.2,491.3 1380.4,486.9 1391.1,486.9 1395,491.3 		"/>
		<polygon class="st0" points="1637.2,496.3 1631.4,496.3 1631.4,493.1 1624.8,493.1 1624.8,497.5 1633.7,497.5 1637.2,501.4 
			1637.2,510.4 1633.5,514.9 1622.3,514.9 1618.4,510.6 1618.4,505.6 1624.9,505.6 1624.9,508.3 1631.4,508.3 1631.4,503.5 
			1622.4,503.5 1618.4,499.2 1618.4,491.3 1622.6,486.9 1633.3,486.9 1637.2,491.3 		"/>
		<polygon class="st0" points="2093.9,496.3 2088.2,496.3 2088.2,493.1 2081.5,493.1 2081.5,497.5 2090.4,497.5 2093.9,501.4 
			2093.9,510.4 2090.2,514.9 2079.1,514.9 2075.2,510.6 2075.2,505.6 2081.6,505.6 2081.6,508.3 2088.2,508.3 2088.2,503.5 
			2079.2,503.5 2075.2,499.2 2075.2,491.3 2079.4,486.9 2090,486.9 2093.9,491.3 		"/>
		<polygon class="st0" points="1498.3,486.9 1516.5,486.9 1516.5,493.4 1504.6,493.4 1504.6,497.4 1515.3,497.4 1515.3,503.7 
			1504.6,503.7 1504.6,508 1516.5,508 1516.5,514.9 1498.3,514.9 		"/>
		<polygon class="st0" points="1685.3,486.9 1703.4,486.9 1703.4,493.4 1691.6,493.4 1691.6,497.4 1702.3,497.4 1702.3,503.7 
			1691.6,503.7 1691.6,508 1703.4,508 1703.4,514.9 1685.3,514.9 		"/>
		<polygon class="st0" points="1815.3,486.9 1822.3,486.9 1827.2,502.8 1832.5,486.9 1839.3,486.9 1830,514.9 1824.3,514.9 		"/>
		<path class="st0" d="M2023.1,486.9h-12.3l-4.5,5v17.8l4.5,5.2h12.1l4.3-4.8v-18.6L2023.1,486.9z M2021.4,507
			c0,0.8-0.6,1.4-1.4,1.4h-6c-0.8,0-1.4-0.6-1.4-1.4v-12.2c0-1,0.8-1.8,1.8-1.8h5.1c1,0,1.8,0.8,1.8,1.8L2021.4,507L2021.4,507z"/>
		<path class="st0" d="M1770.1,491.1l-4.2-4.2h-15v28h6v-10.6h5.3l1.8,2.4v8h6.1v-10.4l-2.2-2l2.2-2V491.1L1770.1,491.1z
			 M1763.9,497.6c0,0.6-0.5,1.2-1.2,1.2h-5.7V493h5.7c0.6,0,1.2,0.5,1.2,1.2V497.6z"/>
		<g>
			<path class="st0" d="M1943.9,486.9h11.8l4.3,4.1v5h-6v-2.1c0-0.8-0.6-1.4-1.4-1.4h-5.9c-0.8,0-1.4,0.6-1.4,1.4v12.6
				c0,0.8,0.6,1.4,1.4,1.4h6.2c0.8,0,1.4-0.6,1.4-1.4v-2.3h5.6v4.9l-4.8,4.8v0.7h0.6v3.7l-3.2,3.2h-7.2v-5.4h0.8v-1.5l-6.3-6.3
				v-16.7L1943.9,486.9z"/>
		</g>
	</g>
</g>
<g id="tilte">
	<g>
		<g>
			<g>
				<path class="st0" d="M1021.8,257.7c-0.1-4.3-1.8-8.3-4.9-11.2l-30.5-29.1c-1.6-1.5-3.6-2.3-5.8-2.3H864.2
					c-4.3,0-8.5,1.6-11.7,4.6l-26.2,24c-2.9,2.7-4.6,6.5-4.6,10.4v166.5c0,2.2,1.8,4,4,4l31.9,0.6c3.4,0,6.1-2.7,6.2-6.1l0.3-21.5
					c-0.1-4.4,3.4-8,7.8-8l104.4,1.4c1.1,0,1.9,0.8,2,1.9l1.3,29.2c0.1,1.7,1.5,3.1,3.2,3.1h38.2c1.6,0,2.9-1.3,2.9-2.9
					L1021.8,257.7z M980.2,340.1c0,5.9-4.8,10.7-10.7,10.7h-95.3c-5.2,0-9.4-4.2-9.4-9.4v-73.6c0-5.4,4.4-9.7,9.7-9.7h94.4
					c6.3,0,11.3,5.1,11.3,11.3V340.1L980.2,340.1z"/>
			</g>
		</g>
		<g>
			<g>
				<path class="st0" d="M1737.9,257.7c-0.1-4.3-1.8-8.3-4.9-11.2l-30.5-29.1c-1.6-1.5-3.6-2.3-5.8-2.3h-116.4
					c-4.3,0-8.5,1.6-11.7,4.6l-26.2,24.1c-2.9,2.7-4.6,6.5-4.6,10.4v166.5c0,2.2,1.8,4,4,4l31.9,0.6c3.4,0,6.1-2.7,6.2-6.1l0.3-21.5
					c-0.1-4.4,3.4-8,7.8-8l104.4,1.4c1.1,0,1.9,0.8,2,1.9l1.3,29.2c0.1,1.7,1.5,3.1,3.2,3.1h38.2c1.6,0,2.9-1.3,2.9-2.9
					L1737.9,257.7z M1696.3,340.1c0,5.9-4.8,10.7-10.7,10.7h-95.3c-5.2,0-9.4-4.2-9.4-9.4v-73.6c0-5.4,4.4-9.7,9.7-9.7h94.4
					c6.3,0,11.3,5.1,11.3,11.3V340.1z"/>
			</g>
		</g>
		<g>
			<g>
				<path class="st0" d="M2185.5,257.7c-0.1-4.3-1.8-8.3-4.9-11.2l-30.5-29.1c-1.6-1.5-3.6-2.3-5.8-2.3h-116.4
					c-4.3,0-8.5,1.6-11.7,4.6l-26.2,24.1c-2.9,2.7-4.6,6.5-4.6,10.4v166.5c0,2.2,1.8,4,4,4l31.9,0.6c3.4,0,6.1-2.7,6.2-6.1l0.3-21.5
					c-0.1-4.4,3.4-8,7.8-8l104.4,1.4c1.1,0,1.9,0.8,2,1.9l1.3,29.2c0.1,1.7,1.5,3.1,3.2,3.1h38.2c1.6,0,2.9-1.3,2.9-2.9
					L2185.5,257.7z M2144,340.1c0,5.9-4.8,10.7-10.7,10.7H2038c-5.2,0-9.4-4.2-9.4-9.4v-73.6c0-5.4,4.4-9.7,9.7-9.7h94.4
					c6.3,0,11.3,5.1,11.3,11.3V340.1z"/>
			</g>
		</g>
		<g>
			<path class="st0" d="M1058.5,216.4l44.6-0.1c4.4,0,8.6,2,11.4,5.3L1217,345.7l-0.4-123.6c0-3.2,2.6-5.7,5.7-5.7h39.5
				c1.5,0,2.8,1.3,2.8,2.8l0.1,199.4c0,4.4-3.6,8-8,8h-33c-2.1,0-4.2-1-5.6-2.6l-116.6-140.6c-1-1.2-2-1.1-2,0.5v136.4
				c0,3.5-2.8,6.3-6.3,6.3h-34.6c-2.1,0-3.8-1.7-3.9-3.8l-3.3-199.3C1051.5,219.6,1054.6,216.5,1058.5,216.4z"/>
		</g>
		<g>
			<path class="st0" d="M1297.8,216.2h207.1c1.8,0,3.2,1.4,3.2,3.2v40.4c0,4.3-3.4,7.7-7.7,7.7h-71.5c-2.9,0-5.2,2.3-5.2,5.2
				l-0.3,147c0,4.6-3.8,8.3-8.4,8.2h-34.1c-2.8,0-5-2.2-5-5l-0.8-152.7c0-1.8-1.5-3.3-3.3-3.3l-74.7,0.6c-3.3,0-5.9-2.6-5.9-5.9
				v-38.7C1291.1,219.2,1294.1,216.2,1297.8,216.2z"/>
		</g>
		<g>
			<path class="st0" d="M1775.2,215l172.2-1.5c2.5,0,4.6,1.9,4.7,4.4l1.6,22.9c0.2,3.3-0.9,6.5-3,9l-121.2,138.1l9.7-6.5
				c0.8-0.5,1.7-0.8,2.6-0.8h107.8c3,0,5.4,2.4,5.4,5.4v34.7c0,4.8-3.9,8.6-8.6,8.6h-173.7c-3.1,0-5.6-2.5-5.6-5.6V392
				c0-1.5,0.5-2.9,1.5-4l107.7-123c1.7-2,0.3-5.1-2.3-5l-98.1,2.7c-2.8,0.1-5.1-2.2-5.1-5l0.1-38.3
				C1770.8,217,1772.8,215,1775.2,215z"/>
		</g>
	</g>
</g>
<g id="logo">
	<path class="st1" d="M569.5,106l-67.4-78.1c-2.1-2.4-5.1-3.8-8.3-3.7l-165,4.2c-9.9,0-11.6,0.7-17.1,7.6l-80.8,125.5
		c-6,9.4-6.6,21.2-1.5,31.1l56.3,109c2.2,4.4-0.8,9.5-5.8,9.7l-154.6,5.2c-9.9,0.3-19.1,5.4-24.5,13.7L22.3,449.4
		c-4.7,7.1-4.8,16.2-0.3,23.5l74.4,120.3l74.3,80.9l10.7-211.8l295.4-71.5L575,208.8L569.5,106z"/>
	<path class="st2" d="M560.5,117.7c0,0,2-7.8,4.4-17L502,27.9c-2.1-2.4-5.1-3.8-8.3-3.7l-165,4.2c-4,0-6.6,0.1-8.7,0.7l66.1,88.7
		H560.5z"/>
	<path class="st2" d="M366.9,402.4l-10-11.6l-76.9-77.2c-0.6-0.6-0.4-1.7,0.4-2.1l0.6-0.3c-0.4,0.1-0.7,0.1-1.1,0.1l-154.6,5.2
		c-5.6,0.2-10.9,1.9-15.4,4.8l73.4,91.1L366.9,402.4z"/>
	<path class="st1" d="M432.7,546.4l13.6,29.2c0.8,1.8,1.9,3.4,3.2,4.8l69.3,77.9L460,512l-32.4,26.7L432.7,546.4z"/>
	<path class="st3" d="M397.5,111.1l167.4-6.7c2.6-0.1,5,1.3,6.2,3.5l216.2,398.8c4.2,7.8,3.6,17.3-1.7,24.5l-85.1,114.6
		c-4.4,6-11.4,9.7-18.9,10l-150.2,6.9c-6.9,0.3-13.4-3.4-16.6-9.5l-59.6-115.8c-2.5-4.8-9.3-5.2-12.3-0.6L363.2,659
		c-4.7,7.1-12.6,11.6-21.2,11.9l-162,6.2c-5.3,0.2-10.3-2.6-12.9-7.1L99.9,550.7c-5-8.8-4.5-19.6,1.1-27.9
		c21.6-32.2,74.2-110.5,75.3-112.1c3.1-4.3,10.6-10.1,22.9-10.4c42.7-1.2,119.9-3.2,149.9-3.8c5.3-0.1,8.7-5.5,6.5-10.3l-53.6-117
		c-3.8-8.2-3.1-17.7,1.8-25.3l80-124.8C386.8,114.3,391.9,111.4,397.5,111.1z"/>
</g>
</svg>
