<?xml version="1.0" encoding="utf-8"?>
<!-- Generator: Adobe Illustrator 26.0.1, SVG Export Plug-In . SVG Version: 6.00 Build 0)  -->
<svg version="1.1" id="Camada_1" xmlns="http://www.w3.org/2000/svg" xmlns:xlink="http://www.w3.org/1999/xlink" x="0px" y="0px"
	 viewBox="0 0 806.9 699.7" style="enable-background:new 0 0 806.9 699.7;" xml:space="preserve">
<style type="text/css">
	.st0{fill:#160000;}
	.st1{fill:#4C0000;}
	.st2{fill:#850C0C;}
	.st3{display:none;opacity:0.11;}
</style>
<g id="logo">
	<path class="st0" d="M544.5,146.1l-57-66c-1.8-2-4.3-3.2-7.1-3.1l-139.5,3.5c-8.4,0-9.8,0.6-14.4,6.4l-68.3,106.2
		c-5.1,7.9-5.6,17.9-1.3,26.3l47.6,92.2c1.9,3.7-0.7,8.1-4.9,8.2l-130.8,4.4c-8.4,0.3-16.1,4.6-20.7,11.6L81.6,436.6
		c-4,6-4.1,13.7-0.3,19.8l63,101.7l62.9,68.4l9.1-179.2L466.1,387l83-153.9L544.5,146.1z"/>
	<path class="st1" d="M536.9,156.1c0,0,1.7-6.6,3.7-14.4l-53.2-61.6c-1.8-2-4.3-3.2-7.1-3.1l-139.5,3.5c-3.4,0-5.6,0.1-7.4,0.6
		l55.9,75H536.9z"/>
	<path class="st1" d="M373.1,396.9l-8.5-9.8l-65-65.3c-0.5-0.5-0.4-1.4,0.3-1.8l0.5-0.2c-0.3,0.1-0.6,0.1-0.9,0.1l-130.8,4.4
		c-4.7,0.2-9.2,1.6-13,4l62.1,77L373.1,396.9z"/>
	<path class="st0" d="M428.8,518.7l11.5,24.7c0.7,1.5,1.6,2.9,2.7,4.1l58.6,65.9l-49.7-123.7l-27.4,22.6L428.8,518.7z"/>
	<path class="st2" d="M399,150.5l141.6-5.7c2.2-0.1,4.2,1.1,5.3,3l182.9,337.3c3.6,6.6,3,14.7-1.5,20.7l-72,96.9
		c-3.8,5.1-9.6,8.2-16,8.5l-127.1,5.8c-5.9,0.3-11.3-2.9-14-8.1l-50.4-97.9c-2.1-4.1-7.9-4.4-10.4-0.5l-67.5,103.3
		c-4,6-10.6,9.8-17.9,10.1l-137,5.2c-4.5,0.2-8.7-2.2-10.9-6l-57-100.9c-4.2-7.4-3.8-16.5,0.9-23.6c18.3-27.3,62.8-93.5,63.7-94.8
		c2.6-3.6,9-8.5,19.4-8.8c36.1-1,101.4-2.7,126.8-3.2c4.5-0.1,7.4-4.7,5.5-8.7l-45.3-99c-3.2-6.9-2.6-15,1.5-21.4l67.6-105.6
		C389.9,153.2,394.2,150.7,399,150.5z"/>
</g>
<path class="st3" d="M789,509.7l-216.9-400c-0.4-0.8-1-1.4-1.6-2l0,0l-67.6-78.3c-2.1-2.4-5.2-3.8-8.4-3.7l-165.5,4.2
	c-4,0-6.6,0.1-8.7,0.7c0,0,0,0,0,0l0,0c-3.1,0.9-5,2.8-8.3,6.9l-81,125.9c-6,9.4-6.6,21.3-1.5,31.2l56.5,109.3
	c2.1,4-0.4,8.8-4.7,9.6c-0.1,0-0.2,0-0.3,0.1c-0.2,0-0.5,0.1-0.7,0.1l-155,5.3c-0.7,0-1.4,0.1-2.1,0.1c-0.1,0-0.2,0-0.3,0
	c-0.6,0.1-1.1,0.1-1.7,0.2c-0.2,0-0.4,0.1-0.6,0.1c-0.4,0.1-0.9,0.2-1.3,0.3c-0.3,0.1-0.5,0.1-0.8,0.2c-0.4,0.1-0.7,0.2-1.1,0.3
	c-0.3,0.1-0.6,0.2-0.8,0.3c-0.3,0.1-0.6,0.2-1,0.3c-0.3,0.1-0.6,0.2-0.9,0.3c-0.3,0.1-0.6,0.2-0.8,0.4c-0.3,0.1-0.6,0.3-1,0.4
	c-0.2,0.1-0.4,0.2-0.7,0.3c-0.4,0.2-0.7,0.4-1.1,0.6c-0.1,0-0.2,0.1-0.3,0.2c-0.4,0.2-0.9,0.5-1.3,0.8l0,0c-3.6,2.3-6.7,5.3-9.1,8.9
	L21.7,452.1c-4.7,7.1-4.8,16.3-0.3,23.5L96,596.3l71.5,77.8c0.8,1.3,1.9,2.4,3.1,3.3l0,0l0,0c2.6,2,5.9,3.2,9.3,3l162.4-6.2
	c8.6-0.3,16.5-4.8,21.2-12L435,553l12,25.6c0.8,1.8,1.9,3.4,3.2,4.8l66.8,75.1c0.8,1.1,1.7,2.1,2.7,3l0,0l0,0
	c3.4,3,7.9,4.7,12.7,4.5l150.6-6.9c7.5-0.3,14.5-4,18.9-10l85.3-114.9C792.6,527.1,793.2,517.5,789,509.7z"/>
</svg>
