<?xml version="1.0" encoding="utf-8"?>
<!-- Generator: Adobe Illustrator 26.0.1, SVG Export Plug-In . SVG Version: 6.00 Build 0)  -->
<svg version="1.1" id="Camada_1" xmlns="http://www.w3.org/2000/svg" xmlns:xlink="http://www.w3.org/1999/xlink" x="0px" y="0px"
	 viewBox="0 0 1400.4 699.7" style="enable-background:new 0 0 1400.4 699.7;" xml:space="preserve">
<style type="text/css">
	.st0{fill:#B7B7B7;}
</style>
<g id="sub-title">
	<g>
		<polygon class="st0" points="106.7,486.9 106.7,514.9 113,514.9 113,503.8 116.3,512.2 120.5,512.2 123.8,503.6 123.8,514.9 
			130.1,514.9 130.1,486.9 123.9,486.9 118.4,501.7 112.5,486.9 		"/>
		<path class="st0" d="M190.5,487.8l4.2-8.1h-7l-3.7,9h0.6l-8.7,26.3h6.7l1.9-6.9h6.3l2.3,6.9h6.6L190.5,487.8z M186.3,502.3
			l1.4-4.2l1.5,4.2H186.3z"/>
		<path class="st0" d="M263.8,511.3l1.4-1.5V492l-4.9-5h-10.9l-5,5.1v17.8l4.6,5.1h9.7l3.8,4.3l4.1-4.3L263.8,511.3z M259.1,506.7
			c0,1-0.8,1.8-1.8,1.8h-4.8c-1,0-1.8-0.8-1.8-1.8v-12c0-1,0.8-1.8,1.8-1.8h4.8c1,0,1.8,0.8,1.8,1.8V506.7z"/>
		<path class="st0" d="M313.4,486.9h6v20.3c0,0.7,0.5,1.2,1.2,1.2h5.5c0.7,0,1.2-0.5,1.2-1.2v-20.3h6.1v22.9l-4.6,5.1H318l-4.6-4.9
			V486.9z"/>
		<rect x="382.1" y="486.9" class="st0" width="6.5" height="28"/>
		<rect x="1079.6" y="486.9" class="st0" width="6.5" height="28"/>
		<polygon class="st0" points="436.9,486.9 436.9,514.9 443,514.9 443,500.9 451.8,514.9 456.9,514.9 456.9,486.9 450.6,486.9 
			450.6,500.9 441.8,486.9 		"/>
		<path class="st0" d="M517.2,486.9h-5.5l-9.7,28h7.3l2-6.9h6.1l2.1,6.9h6.8L517.2,486.9z M512.9,502.1l1.5-3.9l1.5,3.9H512.9z"/>
		<polygon class="st0" points="589.7,496.3 583.9,496.3 583.9,493.1 577.3,493.1 577.3,497.5 586.2,497.5 589.7,501.4 589.7,510.4 
			586,514.9 574.8,514.9 570.9,510.6 570.9,505.6 577.4,505.6 577.4,508.3 583.9,508.3 583.9,503.5 574.9,503.5 570.9,499.2 
			570.9,491.3 575.1,486.9 585.8,486.9 589.7,491.3 		"/>
		<polygon class="st0" points="831.9,496.3 826.1,496.3 826.1,493.1 819.5,493.1 819.5,497.5 828.4,497.5 831.9,501.4 831.9,510.4 
			828.2,514.9 817,514.9 813.1,510.6 813.1,505.6 819.6,505.6 819.6,508.3 826.1,508.3 826.1,503.5 817.1,503.5 813.1,499.2 
			813.1,491.3 817.3,486.9 828,486.9 831.9,491.3 		"/>
		<polygon class="st0" points="1288.6,496.3 1282.9,496.3 1282.9,493.1 1276.2,493.1 1276.2,497.5 1285.1,497.5 1288.6,501.4 
			1288.6,510.4 1284.9,514.9 1273.8,514.9 1269.9,510.6 1269.9,505.6 1276.3,505.6 1276.3,508.3 1282.9,508.3 1282.9,503.5 
			1273.9,503.5 1269.9,499.2 1269.9,491.3 1274.1,486.9 1284.7,486.9 1288.6,491.3 		"/>
		<polygon class="st0" points="693,486.9 711.2,486.9 711.2,493.4 699.3,493.4 699.3,497.4 710,497.4 710,503.7 699.3,503.7 
			699.3,508 711.2,508 711.2,514.9 693,514.9 		"/>
		<polygon class="st0" points="880,486.9 898.1,486.9 898.1,493.4 886.3,493.4 886.3,497.4 897,497.4 897,503.7 886.3,503.7 
			886.3,508 898.1,508 898.1,514.9 880,514.9 		"/>
		<polygon class="st0" points="1010,486.9 1017,486.9 1021.9,502.8 1027.2,486.9 1034,486.9 1024.7,514.9 1019,514.9 		"/>
		<path class="st0" d="M1217.8,486.9h-12.3l-4.5,5v17.8l4.5,5.2h12.1l4.3-4.8v-18.6L1217.8,486.9z M1216.1,507
			c0,0.8-0.6,1.4-1.4,1.4h-6c-0.8,0-1.4-0.6-1.4-1.4v-12.2c0-1,0.8-1.8,1.8-1.8h5.1c1,0,1.8,0.8,1.8,1.8L1216.1,507L1216.1,507z"/>
		<path class="st0" d="M964.8,491.1l-4.2-4.2h-15v28h6v-10.6h5.3l1.8,2.4v8h6.1v-10.4l-2.2-2l2.2-2L964.8,491.1L964.8,491.1z
			 M958.6,497.6c0,0.6-0.5,1.2-1.2,1.2h-5.7V493h5.7c0.6,0,1.2,0.5,1.2,1.2V497.6z"/>
		<g>
			<path class="st0" d="M1138.6,486.9h11.8l4.3,4.1v5h-6v-2.1c0-0.8-0.6-1.4-1.4-1.4h-5.9c-0.8,0-1.4,0.6-1.4,1.4v12.6
				c0,0.8,0.6,1.4,1.4,1.4h6.2c0.8,0,1.4-0.6,1.4-1.4v-2.3h5.6v4.9l-4.8,4.8v0.7h0.6v3.7l-3.2,3.2h-7.2v-5.4h0.8v-1.5l-6.3-6.3
				v-16.7L1138.6,486.9z"/>
		</g>
	</g>
</g>
<g id="tilte">
	<g>
		<g>
			<g>
				<path class="st0" d="M216.5,257.7c-0.1-4.3-1.8-8.3-4.9-11.2l-30.5-29.1c-1.6-1.5-3.6-2.3-5.8-2.3H58.9c-4.3,0-8.5,1.6-11.7,4.6
					l-26.2,24c-2.9,2.7-4.6,6.5-4.6,10.4v166.5c0,2.2,1.8,4,4,4l31.9,0.6c3.4,0,6.1-2.7,6.2-6.1l0.3-21.5c-0.1-4.4,3.4-8,7.8-8
					L171,391c1.1,0,1.9,0.8,2,1.9l1.3,29.2c0.1,1.7,1.5,3.1,3.2,3.1h38.2c1.6,0,2.9-1.3,2.9-2.9L216.5,257.7z M174.9,340.1
					c0,5.9-4.8,10.7-10.7,10.7H68.9c-5.2,0-9.4-4.2-9.4-9.4v-73.6c0-5.4,4.4-9.7,9.7-9.7h94.4c6.3,0,11.3,5.1,11.3,11.3L174.9,340.1
					L174.9,340.1z"/>
			</g>
		</g>
		<g>
			<g>
				<path class="st0" d="M932.6,257.7c-0.1-4.3-1.8-8.3-4.9-11.2l-30.5-29.1c-1.6-1.5-3.6-2.3-5.8-2.3H775c-4.3,0-8.5,1.6-11.7,4.6
					l-26.2,24.1c-2.9,2.7-4.6,6.5-4.6,10.4v166.5c0,2.2,1.8,4,4,4l31.9,0.6c3.4,0,6.1-2.7,6.2-6.1l0.3-21.5c-0.1-4.4,3.4-8,7.8-8
					l104.4,1.4c1.1,0,1.9,0.8,2,1.9l1.3,29.2c0.1,1.7,1.5,3.1,3.2,3.1h38.2c1.6,0,2.9-1.3,2.9-2.9L932.6,257.7z M891,340.1
					c0,5.9-4.8,10.7-10.7,10.7H785c-5.2,0-9.4-4.2-9.4-9.4v-73.6c0-5.4,4.4-9.7,9.7-9.7h94.4c6.3,0,11.3,5.1,11.3,11.3V340.1z"/>
			</g>
		</g>
		<g>
			<g>
				<path class="st0" d="M1380.2,257.7c-0.1-4.3-1.8-8.3-4.9-11.2l-30.5-29.1c-1.6-1.5-3.6-2.3-5.8-2.3h-116.4
					c-4.3,0-8.5,1.6-11.7,4.6l-26.2,24.1c-2.9,2.7-4.6,6.5-4.6,10.4v166.5c0,2.2,1.8,4,4,4l31.9,0.6c3.4,0,6.1-2.7,6.2-6.1l0.3-21.5
					c-0.1-4.4,3.4-8,7.8-8l104.4,1.4c1.1,0,1.9,0.8,2,1.9l1.3,29.2c0.1,1.7,1.5,3.1,3.2,3.1h38.2c1.6,0,2.9-1.3,2.9-2.9
					L1380.2,257.7z M1338.7,340.1c0,5.9-4.8,10.7-10.7,10.7h-95.3c-5.2,0-9.4-4.2-9.4-9.4v-73.6c0-5.4,4.4-9.7,9.7-9.7h94.4
					c6.3,0,11.3,5.1,11.3,11.3V340.1z"/>
			</g>
		</g>
		<g>
			<path class="st0" d="M253.2,216.4l44.6-0.1c4.4,0,8.6,2,11.4,5.3l102.5,124.1l-0.4-123.6c0-3.2,2.6-5.7,5.7-5.7h39.5
				c1.5,0,2.8,1.3,2.8,2.8l0.1,199.4c0,4.4-3.6,8-8,8h-33c-2.1,0-4.2-1-5.6-2.6L296.2,283.4c-1-1.2-2-1.1-2,0.5v136.4
				c0,3.5-2.8,6.3-6.3,6.3h-34.6c-2.1,0-3.8-1.7-3.9-3.8l-3.3-199.3C246.2,219.6,249.3,216.5,253.2,216.4z"/>
		</g>
		<g>
			<path class="st0" d="M492.5,216.2h207.1c1.8,0,3.2,1.4,3.2,3.2v40.4c0,4.3-3.4,7.7-7.7,7.7h-71.5c-2.9,0-5.2,2.3-5.2,5.2
				l-0.3,147c0,4.6-3.8,8.3-8.4,8.2h-34.1c-2.8,0-5-2.2-5-5l-0.8-152.7c0-1.8-1.5-3.3-3.3-3.3l-74.7,0.6c-3.3,0-5.9-2.6-5.9-5.9
				v-38.7C485.8,219.2,488.8,216.2,492.5,216.2z"/>
		</g>
		<g>
			<path class="st0" d="M969.9,215l172.2-1.5c2.5,0,4.6,1.9,4.7,4.4l1.6,22.9c0.2,3.3-0.9,6.5-3,9l-121.2,138.1l9.7-6.5
				c0.8-0.5,1.7-0.8,2.6-0.8h107.8c3,0,5.4,2.4,5.4,5.4v34.7c0,4.8-3.9,8.6-8.6,8.6H967.4c-3.1,0-5.6-2.5-5.6-5.6V392
				c0-1.5,0.5-2.9,1.5-4L1071,265c1.7-2,0.3-5.1-2.3-5l-98.1,2.7c-2.8,0.1-5.1-2.2-5.1-5l0.1-38.3C965.5,217,967.5,215,969.9,215z"
				/>
		</g>
	</g>
</g>
</svg>
